<svg width="193" height="41" viewBox="0 0 193 41" fill="none" xmlns="http://www.w3.org/2000/svg">
<path d="M183.134 16.8778H186.288V13.7717H183.134V16.8778ZM176.826 4.45347H179.98V1.34741H176.826V4.45347ZM176.826 10.6656H179.98V7.55953H176.826V10.6656ZM189.442 4.45347H192.596V1.34741H189.442V4.45347ZM183.134 10.6656H186.288V7.55953H183.134V10.6656ZM176.826 16.8778H179.98V13.7717H176.826V16.8778ZM183.134 4.45347H186.288V1.34741H183.134V4.45347ZM189.442 10.6656H192.596V7.55953H189.442V10.6656ZM189.442 16.8778H192.596V13.7717H189.442V16.8778ZM44.6641 23.0196C45.1696 18.3166 47.4734 15.8267 51.8551 15.8267C56.125 15.8267 58.5967 18.4825 58.5967 23.0196H44.6641ZM52.1922 10.7364C42.3609 10.7364 38.4841 17.2649 38.4841 25.509C38.4841 34.9703 43.4842 40.6137 53.8212 40.6137C57.1364 40.6137 60.113 40.1157 62.9225 38.8435C63.3162 37.0175 63.6527 34.9147 63.8778 33.3104C60.7879 34.694 57.3608 35.4133 53.9897 35.4133C48.4848 35.4133 45.5633 33.0337 44.7766 28.1099H64.4955C64.72 26.5051 64.8325 25.1219 64.8325 23.4067C64.8325 16.436 61.0124 10.7364 52.1922 10.7364ZM85.2832 16.8778C85.5648 15.2734 85.7328 13.5583 85.8448 11.6772H76.07V1.21991C74.1599 1.21991 71.8001 1.49674 69.8902 2.10557V31.153C69.8902 37.9027 73.7103 40.6137 79.7215 40.6137C81.4631 40.6137 83.2606 40.3926 84.9461 39.7286C85.2832 38.1238 85.5077 36.2431 85.6768 34.5826C84.3283 35.0807 82.6429 35.4133 80.8448 35.4133C77.8681 35.4133 76.07 34.0295 76.07 30.4333V16.8778H85.2832ZM166.803 16.8778C167.084 15.2734 167.253 13.5583 167.365 11.6772H157.59V1.21991C155.679 1.21991 153.32 1.49674 151.41 2.10557V31.153C151.41 37.9027 155.23 40.6137 161.241 40.6137C162.983 40.6137 164.78 40.3926 166.466 39.7286C166.803 38.1238 167.027 36.2431 167.197 34.5826C165.848 35.0807 164.162 35.4133 162.365 35.4133C159.387 35.4133 157.59 34.0295 157.59 30.4333V16.8778H166.803ZM126.184 23.0196C126.69 18.3166 128.993 15.8267 133.374 15.8267C137.645 15.8267 140.116 18.4825 140.116 23.0196H126.184ZM133.712 10.7364C123.881 10.7364 120.004 17.2649 120.004 25.509C120.004 34.9703 125.004 40.6137 135.341 40.6137C138.656 40.6137 141.633 40.1157 144.442 38.8435C144.836 37.0175 145.172 34.9147 145.398 33.3104C142.307 34.694 138.881 35.4133 135.509 35.4133C130.004 35.4133 127.083 33.0337 126.297 28.1099H146.015C146.24 26.5051 146.352 25.1219 146.352 23.4067C146.352 16.436 142.532 10.7364 133.712 10.7364ZM26.5731 34.7492C24.8876 35.0807 23.0336 35.3023 21.4045 35.3023C12.8655 35.3023 7.47244 30.4333 7.47244 20.5297C7.47244 11.456 12.4719 6.31013 21.6857 6.31013C25.6184 6.31013 28.7083 6.97464 31.4605 7.8598C32.0221 6.14414 32.4719 4.09703 32.5839 2.27158C29.663 1.27559 26.0115 0.777596 21.6857 0.777596C8.53976 0.777596 0.955505 7.97063 0.955505 20.7508C0.955505 32.4803 7.86503 40.8348 20.9555 40.8348C25.1686 40.8348 29.663 40.0606 32.8649 38.7884V19.0914H26.5731V34.7492ZM101.576 10.7364C98.5992 10.7364 94.2729 11.3452 90.3407 12.2855V39.9497H96.5201V16.3798C98.2056 16.1034 99.9466 15.938 101.408 15.938C107.587 15.938 109.048 18.0403 109.048 22.4109V39.9497H115.228V21.3597C115.228 14.6646 111.914 10.7364 101.576 10.7364Z" fill="#EC0000"/>
</svg>
